<?xml version="1.0" encoding="utf-8"?>
<!-- Generator: Adobe Illustrator 13.0.3, SVG Export Plug-In . SVG Version: 6.00 Build 14948)  -->
<!DOCTYPE svg PUBLIC "-//W3C//DTD SVG 1.1//EN" "http://www.w3.org/Graphics/SVG/1.1/DTD/svg11.dtd">
<svg version="1.1"
     id="svg2" sodipodi:docname="cvs_ja.svg" inkscape:version="0.48.4 r" xmlns:dc="http://purl.org/dc/elements/1.1/" xmlns:cc="http://creativecommons.org/ns#" xmlns:rdf="http://www.w3.org/1999/02/22-rdf-syntax-ns#" xmlns:svg="http://www.w3.org/2000/svg" xmlns:sodipodi="http://sodipodi.sourceforge.net/DTD/sodipodi-0.dtd" xmlns:inkscape="http://www.inkscape.org/namespaces/inkscape"
     xmlns="http://www.w3.org/2000/svg" xmlns:xlink="http://www.w3.org/1999/xlink" x="0px" y="0px" width="473.927px"
     height="471.986px" viewBox="54.285 187.922 473.927 471.986" enable-background="new 54.285 187.922 473.927 471.986"
     xml:space="preserve">
<defs>
		<inkscape:path-effect  id="path-effect3047" effect="bend_path" bendpath-nodetypes="cc" vertical="false" scale_y_rel="false" prop_scale="1" bendpath="m 90,147.36218 31.42857,1.42857" is_visible="true">
		</inkscape:path-effect>
		<inkscape:path-effect  id="path-effect3041" effect="bend_path" vertical="false" scale_y_rel="false" prop_scale="1" bendpath="m 90,132.36218 44.28571,0" is_visible="true">
		</inkscape:path-effect>
		<inkscape:path-effect  id="path-effect3039" effect="bend_path" bendpath-nodetypes="cc" vertical="false" scale_y_rel="false" prop_scale="1" bendpath="m 68.571428,192.36218 42.857142,0" is_visible="true">
		</inkscape:path-effect>
		<inkscape:path-effect  id="path-effect3037" effect="bend_path" vertical="false" scale_y_rel="false" prop_scale="1" bendpath="m 90,132.36218 44.28571,0" is_visible="true">
		</inkscape:path-effect>
</defs>
<sodipodi:namedview  id="base" inkscape:window-y="-9" inkscape:window-x="-9" inkscape:window-height="1014" inkscape:window-width="1920" inkscape:current-layer="layer1" inkscape:document-units="px" inkscape:pageshadow="2" inkscape:pageopacity="0.0" inkscape:window-maximized="1" inkscape:cy="540" inkscape:cx="-7.1428573" inkscape:zoom="0.7" borderopacity="1.0" bordercolor="#666666" pagecolor="#ffffff" showgrid="false">
	</sodipodi:namedview>
<g id="layer1" inkscape:groupmode="layer" inkscape:label="lavelen 1">
	<text transform="matrix(1 0 0 1 54.2854 198.2195)" font-family="'ArialMT'" font-size="12">$CVSROOT(openlab.jp:/circus/cvsroot)</text>
	<text transform="matrix(1 0 0 1 113.7141 259.6482)" font-family="'ArialMT'" font-size="14">SKK</text>
	<text transform="matrix(1 0 0 1 209.9998 256.6238)" fill="#FF0000" font-family="'ArialMT'" font-size="14">main (Main distribution -- Emacs Lisp, tutorials, etc)</text>
	<text transform="matrix(1 0 0 1 209.9998 274.1238)" fill="#FF0000" font-family="'ArialMT'" font-size="14">* moved to github</text>
	<text transform="matrix(1 0 0 1 210.5457 336.3718)" font-family="'ArialMT'" font-size="14">dic (Dictionaries)</text>
	<text transform="matrix(1 0 0 1 210.9099 416.1199)" fill="#FF0000" font-family="'ArialMT'" font-size="14">tools (Dictionary maintenance tools)</text>
	<text transform="matrix(1 0 0 1 210.9099 433.6199)" fill="#FF0000" font-family="'ArialMT'" font-size="14">* moved to github</text>
	<text transform="matrix(1 0 0 1 210.8538 495.8669)" font-family="'ArialMT'" font-size="14">skkserv (Dictionary server)</text>
	<text transform="matrix(1 0 0 1 209.9998 575.615)" font-family="'ArialMT'" font-size="14">pySKK (SKK related libraries using python)</text>
	<text transform="matrix(1 0 0 1 210.9099 655.3621)" font-family="'ArialMT'" font-size="14">web (Web page html files)</text>
	<path id="path3029" inkscape:connector-curvature="0" fill="none" stroke="#000000" d="M175.714,252.612
		c25.715,0,25.715,0,25.715,0"/>
	<path id="path3029-4" inkscape:connector-curvature="0" fill="none" stroke="#000000" d="M175.714,333.933
		c25.715,0,25.715,0,25.715,0"/>
	<path id="path3029-4-4" inkscape:connector-curvature="0" fill="none" stroke="#000000" d="M175.714,413.077
		c25.715,0,25.715,0,25.715,0"/>
	<path id="path3029-4-4-6" inkscape:connector-curvature="0" fill="none" stroke="#000000" d="M175.714,492.791
		c25.715,0,25.715,0,25.715,0"/>
	<path id="path3029-4-4-6-0" inkscape:connector-curvature="0" fill="none" stroke="#000000" d="M175.714,571.077
		c25.715,0,25.715,0,25.715,0"/>
	<path id="path3029-4-4-6-0-5" inkscape:connector-curvature="0" fill="none" stroke="#000000" d="M175.714,653.648
		c25.715,0,25.715,0,25.715,0"/>
	<path id="path3029-6" inkscape:connector-curvature="0" fill="none" stroke="#000000" d="M153.714,252.612
		c25.715,0,25.715,0,25.715,0"/>
	<path id="path3175" inkscape:connector-curvature="0" fill="none" stroke="#000000" d="M175.714,251.077
		c-1.429,401.429-1.429,401.429-1.429,401.429l-1.429-2.857"/>
	<path id="path3029-3" inkscape:connector-curvature="0" fill="none" stroke="#000000" d="M71.714,254.612
		c25.715,0,25.715,0,25.715,0"/>
	<path id="path4346" inkscape:connector-curvature="0" fill="none" stroke="#000000" d="M69.426,254.788
		c-0.566-44.852-0.566-44.852-0.566-44.852"/>
</g>
</svg>
